<?xml version="1.0" encoding="UTF-8" standalone="no"?>
<!-- Created with Inkscape (http://www.inkscape.org/) -->

<svg
   width="25.701748mm"
   height="12.845596mm"
   viewBox="0 0 25.701748 12.845596"
   version="1.1"
   id="svg1261"
   inkscape:version="1.2.2 (b0a8486541, 2022-12-01)"
   sodipodi:docname="logo.svg"
   inkscape:export-filename="logo.svg"
   inkscape:export-xdpi="988.33875"
   inkscape:export-ydpi="988.33875"
   xmlns:inkscape="http://www.inkscape.org/namespaces/inkscape"
   xmlns:sodipodi="http://sodipodi.sourceforge.net/DTD/sodipodi-0.dtd"
   xmlns="http://www.w3.org/2000/svg"
   xmlns:svg="http://www.w3.org/2000/svg">
  <sodipodi:namedview
     id="namedview1263"
     pagecolor="#ffffff"
     bordercolor="#000000"
     borderopacity="0.25"
     inkscape:showpageshadow="2"
     inkscape:pageopacity="0.0"
     inkscape:pagecheckerboard="0"
     inkscape:deskcolor="#d1d1d1"
     inkscape:document-units="mm"
     showgrid="false"
     inkscape:zoom="17.033258"
     inkscape:cx="60.176392"
     inkscape:cy="20.606745"
     inkscape:window-width="1920"
     inkscape:window-height="1011"
     inkscape:window-x="0"
     inkscape:window-y="32"
     inkscape:window-maximized="1"
     inkscape:current-layer="layer1" />
  <defs
     id="defs1258" />
  <g
     inkscape:label="Layer 1"
     inkscape:groupmode="layer"
     id="layer1"
     transform="translate(-35.608258,-133.47038)">
    <ellipse
       style="fill:#808000;fill-opacity:1;stroke-width:0.0787061;stroke-dasharray:none"
       id="path1758-6"
       cx="153.80948"
       cy="-14.827347"
       rx="0.92602348"
       ry="0.97562993"
       transform="matrix(0.30880617,0.95112499,-0.8327757,0.55361055,0,0)" />
    <ellipse
       style="fill:#808000;fill-opacity:1;stroke-width:0.115766;stroke-dasharray:none"
       id="path1758-6-3"
       cx="86.238846"
       cy="90.525299"
       rx="1.2955307"
       ry="1.5087105"
       transform="matrix(0.83024283,0.55740187,-0.15684259,0.98762361,0,0)" />
    <path
       id="rect1747-2"
       style="opacity:1;fill:#1b1f3b;fill-opacity:1;stroke-width:0.197244"
       d="m 48.144783,139.18307 8.805073,0.84199 c 2.238212,0.21403 3.948851,0.92629 3.676243,1.44511 l -0.603725,1.14897 c -0.272564,0.51874 -3.218659,-0.87934 -4.057378,0.22223 -1.698915,2.23129 -5.326301,-1.01798 -7.836189,-1.51469 -2.202206,-0.43715 -3.618336,-0.95279 -3.542278,-1.71417 l 0.175896,-1.76085 c 0.05166,-0.51712 1.175347,0.90652 3.382266,1.33171 z m 1.148252,1.30517 c 4.315928,0.94571 11.803927,0.0723 10.715621,2.14455 -1.10368,2.10146 -4.994005,1.70357 -9.43117,0.81098 -4.347613,-0.87449 -6.735091,-1.9588 -5.938348,-4.09256 0.795782,-2.13126 5.032732,2.83352 9.943955,3.01137 l -4.862429,-0.97086 z"
       sodipodi:nodetypes="csssssssscssscccs" />
    <ellipse
       style="fill:#808000;fill-opacity:1;stroke-width:0.0269662;stroke-dasharray:none"
       id="path1758-6-7"
       cx="90.184029"
       cy="138.24484"
       rx="0.31075159"
       ry="0.34128264"
       transform="matrix(0.99868066,0.05135104,-0.21030492,0.97763584,0,0)" />
    <ellipse
       style="fill:#808000;fill-opacity:1;stroke-width:0.0269321;stroke-dasharray:none"
       id="path1758-6-7-5"
       cx="-101.65211"
       cy="94.724915"
       rx="0.30577722"
       ry="0.34595793"
       transform="matrix(0.29807193,-0.95454341,0.9018804,0.43198581,0,0)" />
    <path
       id="path9269"
       style="fill:#808000;stroke-width:0.342166"
       d="m 60.123606,142.22223 a 1.8229028,2.3145562 42.932513 0 1 -2.839781,1.35269 1.8229028,2.3145562 42.932513 0 1 -0.685115,-2.64518 1.8229028,2.3145562 42.932513 0 1 2.839724,-1.35267 1.8229028,2.3145562 42.932513 0 1 0.685021,2.64518 z m -1.781906,1.28178 a 0.86141029,3.1085273 89.980161 0 1 -3.244127,0.82303 0.86141029,3.1085273 89.980161 0 1 -2.966328,-0.89847 0.86141029,3.1085273 89.980161 0 1 3.24384,-0.82316 0.86141029,3.1085273 89.980161 0 1 2.967025,0.89794 l -3.10539,-0.0377 z m -4.399983,0.61858 a 4.0605981,2.6845366 0.00795766 0 1 -4.06334,-2.68303 4.0605981,2.6845366 0.00795766 0 1 4.057672,-2.68621 4.0605981,2.6845366 0.00795766 0 1 4.063369,2.68297 4.0605981,2.6845366 0.00795766 0 1 -4.057612,2.68619 z m 1.525157,-2.53538 a 1.4414264,2.4420801 85.602599 0 1 3.410711,0.12491 1.4414264,2.4420801 85.602599 0 1 -0.498631,2.04585 1.4414264,2.4420801 85.602599 0 1 -3.410731,-0.1249 1.4414264,2.4420801 85.602599 0 1 0.498612,-2.04581 z" />
    <path
       id="rect1747"
       style="fill:#3a4352;stroke-width:0.239038;fill-opacity:1"
       d="m 48.079143,139.46756 8.954771,1.96962 c 2.216205,0.48884 3.8131,-0.71486 3.60504,0.0908 l -0.581775,2.25247 c -0.208051,0.80554 -3.243674,-1.09255 -4.032302,0.58111 -1.597462,3.39006 -5.349105,-1.16461 -7.870461,-1.73846 -2.212325,-0.5054 -4.066558,-1.28045 -3.858094,-2.36644 l 0.449273,-2.34069 c 0.141535,-0.7376 1.116956,1.06439 3.333468,1.55192 z m 1.199353,1.84886 c 4.339545,1.12151 11.761568,-0.63266 10.765602,2.48507 -1.010039,3.16175 -4.902315,2.81978 -9.360368,1.78403 -4.368082,-1.01473 -7.013595,-2.57469 -6.310684,-5.76476 0.702058,-3.18631 5.354993,3.96859 10.254877,3.92278 l -4.885011,-1.1243 z"
       sodipodi:nodetypes="csssssssscssscccs" />
    <rect
       style="opacity:1;fill:#1b1f3b;fill-opacity:1;stroke-width:0.262672;stroke-dasharray:none"
       id="rect11960"
       width="10.427993"
       height="1.1817248"
       x="-102.18514"
       y="-105.52666"
       rx="4.072432"
       ry="0.33598137"
       transform="matrix(-0.90066773,-0.4345085,0.44710502,-0.89448147,0,0)" />
    <rect
       style="fill:#3a4352;fill-opacity:1;stroke-width:0.259605;stroke-dasharray:none"
       id="rect11960-9"
       width="10.372889"
       height="1.1604224"
       x="-104.35664"
       y="-105.18572"
       rx="4.0718269"
       ry="0.33592027"
       transform="matrix(-0.89902641,-0.43789442,0.46594003,-0.8848163,0,0)" />
  </g>
</svg>
