<?xml version="1.0" encoding="UTF-8" standalone="no"?>
<!-- Created with Inkscape (http://www.inkscape.org/) -->

<svg
   width="95.231056mm"
   height="15.367493mm"
   viewBox="0 0 95.231056 15.367493"
   version="1.1"
   id="svg5"
   inkscape:export-filename="start5.png"
   inkscape:export-xdpi="96"
   inkscape:export-ydpi="96"
   xmlns:inkscape="http://www.inkscape.org/namespaces/inkscape"
   xmlns:sodipodi="http://sodipodi.sourceforge.net/DTD/sodipodi-0.dtd"
   xmlns="http://www.w3.org/2000/svg"
   xmlns:svg="http://www.w3.org/2000/svg">
  <sodipodi:namedview
     id="namedview7"
     pagecolor="#ffffff"
     bordercolor="#000000"
     borderopacity="0.25"
     inkscape:showpageshadow="2"
     inkscape:pageopacity="0.0"
     inkscape:pagecheckerboard="0"
     inkscape:deskcolor="#d1d1d1"
     inkscape:document-units="mm"
     showgrid="false" />
  <defs
     id="defs2" />
  <g
     inkscape:label="Layer 1"
     inkscape:groupmode="layer"
     id="layer1"
     transform="translate(-3.5297225,-259.39135)">
    <path
       sodipodi:type="star"
       style="fill:#ffcc00;stroke-width:0.264999"
       id="path449"
       inkscape:flatsided="false"
       sodipodi:sides="5"
       sodipodi:cx="38.780254"
       sodipodi:cy="67.180893"
       sodipodi:r1="54.003563"
       sodipodi:r2="27.001785"
       sodipodi:arg1="0.93425451"
       sodipodi:arg2="1.562573"
       inkscape:rounded="0"
       inkscape:randomized="0"
       d="M 70.880949,110.60819 39.002296,94.181765 7.3980994,111.13024 13.169514,75.735796 -12.715678,50.915785 22.729904,45.467241 38.336173,13.179156 54.471333,45.206215 90.001729,50.071092 64.528225,75.313447 Z"
       inkscape:transform-center-x="0.021013518"
       inkscape:transform-center-y="-0.76966793"
       transform="matrix(0.15313057,0,0,0.15313057,5.4768818,257.74139)" />
    <path
       sodipodi:type="star"
       style="fill:#ffcc00;stroke-width:0.264999"
       id="path449-3"
       inkscape:flatsided="false"
       sodipodi:sides="5"
       sodipodi:cx="38.780254"
       sodipodi:cy="67.180893"
       sodipodi:r1="54.003563"
       sodipodi:r2="27.001785"
       sodipodi:arg1="0.93425451"
       sodipodi:arg2="1.562573"
       inkscape:rounded="0"
       inkscape:randomized="0"
       d="M 70.880949,110.60819 39.002296,94.181765 7.3980994,111.13024 13.169514,75.735796 -12.715678,50.915785 22.729904,45.467241 38.336173,13.179156 54.471333,45.206215 90.001729,50.071092 64.528225,75.313447 Z"
       inkscape:transform-center-x="0.021013518"
       inkscape:transform-center-y="-0.76966793"
       transform="matrix(0.15313057,0,0,0.15313057,25.273922,257.68378)" />
    <path
       sodipodi:type="star"
       style="fill:#ffcc00;stroke-width:0.264999"
       id="path449-6"
       inkscape:flatsided="false"
       sodipodi:sides="5"
       sodipodi:cx="38.780254"
       sodipodi:cy="67.180893"
       sodipodi:r1="54.003563"
       sodipodi:r2="27.001785"
       sodipodi:arg1="0.93425451"
       sodipodi:arg2="1.562573"
       inkscape:rounded="0"
       inkscape:randomized="0"
       d="M 70.880949,110.60819 39.002296,94.181765 7.3980994,111.13024 13.169514,75.735796 -12.715678,50.915785 22.729904,45.467241 38.336173,13.179156 54.471333,45.206215 90.001729,50.071092 64.528225,75.313447 Z"
       inkscape:transform-center-x="0.021013518"
       inkscape:transform-center-y="-0.76966793"
       transform="matrix(0.15313057,0,0,0.15313057,44.675995,257.43084)" />
    <path
       sodipodi:type="star"
       style="fill:#ffcc00;stroke-width:0.264999"
       id="path449-3-7"
       inkscape:flatsided="false"
       sodipodi:sides="5"
       sodipodi:cx="38.780254"
       sodipodi:cy="67.180893"
       sodipodi:r1="54.003563"
       sodipodi:r2="27.001785"
       sodipodi:arg1="0.93425451"
       sodipodi:arg2="1.562573"
       inkscape:rounded="0"
       inkscape:randomized="0"
       d="M 70.880949,110.60819 39.002296,94.181765 7.3980994,111.13024 13.169514,75.735796 -12.715678,50.915785 22.729904,45.467241 38.336173,13.179156 54.471333,45.206215 90.001729,50.071092 64.528225,75.313447 Z"
       inkscape:transform-center-x="0.021013518"
       inkscape:transform-center-y="-0.76966793"
       transform="matrix(0.15313057,0,0,0.15313057,64.473035,257.37323)" />
    <path
       sodipodi:type="star"
       style="fill:#ffcc00;stroke-width:0.264999"
       id="path449-3-7-5"
       inkscape:flatsided="false"
       sodipodi:sides="5"
       sodipodi:cx="38.780254"
       sodipodi:cy="67.180893"
       sodipodi:r1="54.003563"
       sodipodi:r2="27.001785"
       sodipodi:arg1="0.93425451"
       sodipodi:arg2="1.562573"
       inkscape:rounded="0"
       inkscape:randomized="0"
       d="M 70.880949,110.60819 39.002296,94.181765 7.3980994,111.13024 13.169514,75.735796 -12.715678,50.915785 22.729904,45.467241 38.336173,13.179156 54.471333,45.206215 90.001729,50.071092 64.528225,75.313447 Z"
       inkscape:transform-center-x="0.021013518"
       inkscape:transform-center-y="-0.76966793"
       transform="matrix(0.15313057,0,0,0.15313057,84.978761,257.69659)" />
  </g>
</svg>
